# xmcd
#
# Track frame offsets: 
#        300
#        27050
#        47600
#        68262
#
# Disc length: 1182 seconds
#
# Revision: 1
# Processed by: cddbd v1.5.2PL0 Copyright (c) Steve Scherf et al.
# Submitted via: ExactAudioCopy v1.0b3
#
DISCID=24049a04
DTITLE=Bad Boys Blue - Hungry For Love (Maxi)
DYEAR=1988
DGENRE=Pop
TTITLE0=Hungry For Love (Club Mix)
TTITLE1=Hungry For Love (Radio Edit)
TTITLE2=Hungry For Love (Instrumental)
TTITLE3=Pretty Young Girl (Club Mix '88)
EXTD=
EXTT0=
EXTT1=
EXTT2=
EXTT3=
PLAYORDER=
